STARTFONT 2.1
FONT cp437-6x8
SIZE 8 100 100
FONTBOUNDINGBOX 6 8 0 0
STARTPROPERTIES 9
PIXEL_SIZE 8
POINT_SIZE 1
RESOLUTION_X 100
RESOLUTION_Y 100
FONT_ASCENT 8
FONT_DESCENT 0
AVERAGE_WIDTH 80
SPACING "C"
DEFAULT_CHAR 32
ENDPROPERTIES
CHARS 256
STARTCHAR 0
ENCODING 0
SWIDTH 540 0
DWIDTH 6 0
BBX 6 8 0 0
BITMAP
00
00
00
00
00
00
00
00
ENDCHAR
STARTCHAR 1
ENCODING 1
SWIDTH 540 0
DWIDTH 6 0
BBX 6 8 0 0
BITMAP
38
44
6c
44
54
44
38
00
ENDCHAR
STARTCHAR 2
ENCODING 2
SWIDTH 540 0
DWIDTH 6 0
BBX 6 8 0 0
BITMAP
38
7c
54
7c
44
7c
38
00
ENDCHAR
STARTCHAR 3
ENCODING 3
SWIDTH 540 0
DWIDTH 6 0
BBX 6 8 0 0
BITMAP
00
28
7c
7c
7c
38
10
00
ENDCHAR
STARTCHAR 4
ENCODING 4
SWIDTH 540 0
DWIDTH 6 0
BBX 6 8 0 0
BITMAP
00
10
38
7c
7c
38
10
00
ENDCHAR
STARTCHAR 5
ENCODING 5
SWIDTH 540 0
DWIDTH 6 0
BBX 6 8 0 0
BITMAP
10
38
38
10
7c
7c
10
00
ENDCHAR
STARTCHAR 6
ENCODING 6
SWIDTH 540 0
DWIDTH 6 0
BBX 6 8 0 0
BITMAP
00
10
38
7c
7c
10
38
00
ENDCHAR
STARTCHAR 7
ENCODING 7
SWIDTH 540 0
DWIDTH 6 0
BBX 6 8 0 0
BITMAP
00
00
00
30
30
00
00
00
ENDCHAR
STARTCHAR 8
ENCODING 8
SWIDTH 540 0
DWIDTH 6 0
BBX 6 8 0 0
BITMAP
fc
fc
fc
cc
cc
fc
fc
fc
ENDCHAR
STARTCHAR 9
ENCODING 9
SWIDTH 540 0
DWIDTH 6 0
BBX 6 8 0 0
BITMAP
00
00
78
48
48
78
00
00
ENDCHAR
STARTCHAR 10
ENCODING 10
SWIDTH 540 0
DWIDTH 6 0
BBX 6 8 0 0
BITMAP
fc
fc
84
b4
b4
84
fc
fc
ENDCHAR
STARTCHAR 11
ENCODING 11
SWIDTH 540 0
DWIDTH 6 0
BBX 6 8 0 0
BITMAP
00
1c
0c
34
48
48
30
00
ENDCHAR
STARTCHAR 12
ENCODING 12
SWIDTH 540 0
DWIDTH 6 0
BBX 6 8 0 0
BITMAP
38
44
44
38
10
38
10
00
ENDCHAR
STARTCHAR 13
ENCODING 13
SWIDTH 540 0
DWIDTH 6 0
BBX 6 8 0 0
BITMAP
10
18
14
10
30
70
60
00
ENDCHAR
STARTCHAR 14
ENCODING 14
SWIDTH 540 0
DWIDTH 6 0
BBX 6 8 0 0
BITMAP
0c
34
2c
34
2c
6c
60
00
ENDCHAR
STARTCHAR 15
ENCODING 15
SWIDTH 540 0
DWIDTH 6 0
BBX 6 8 0 0
BITMAP
00
54
38
6c
38
54
00
00
ENDCHAR
STARTCHAR 16
ENCODING 16
SWIDTH 540 0
DWIDTH 6 0
BBX 6 8 0 0
BITMAP
20
30
38
3c
38
30
20
00
ENDCHAR
STARTCHAR 17
ENCODING 17
SWIDTH 540 0
DWIDTH 6 0
BBX 6 8 0 0
BITMAP
08
18
38
78
38
18
08
00
ENDCHAR
STARTCHAR 18
ENCODING 18
SWIDTH 540 0
DWIDTH 6 0
BBX 6 8 0 0
BITMAP
10
38
7c
10
7c
38
10
00
ENDCHAR
STARTCHAR 19
ENCODING 19
SWIDTH 540 0
DWIDTH 6 0
BBX 6 8 0 0
BITMAP
28
28
28
28
28
00
28
00
ENDCHAR
STARTCHAR 20
ENCODING 20
SWIDTH 540 0
DWIDTH 6 0
BBX 6 8 0 0
BITMAP
3c
54
54
34
14
14
14
00
ENDCHAR
STARTCHAR 21
ENCODING 21
SWIDTH 540 0
DWIDTH 6 0
BBX 6 8 0 0
BITMAP
38
44
30
28
18
44
38
00
ENDCHAR
STARTCHAR 22
ENCODING 22
SWIDTH 540 0
DWIDTH 6 0
BBX 6 8 0 0
BITMAP
00
00
00
00
00
78
78
00
ENDCHAR
STARTCHAR 23
ENCODING 23
SWIDTH 540 0
DWIDTH 6 0
BBX 6 8 0 0
BITMAP
10
38
7c
10
7c
38
10
38
ENDCHAR
STARTCHAR 24
ENCODING 24
SWIDTH 540 0
DWIDTH 6 0
BBX 6 8 0 0
BITMAP
10
38
7c
10
10
10
10
00
ENDCHAR
STARTCHAR 25
ENCODING 25
SWIDTH 540 0
DWIDTH 6 0
BBX 6 8 0 0
BITMAP
10
10
10
10
7c
38
10
00
ENDCHAR
STARTCHAR 26
ENCODING 26
SWIDTH 540 0
DWIDTH 6 0
BBX 6 8 0 0
BITMAP
00
10
18
7c
18
10
00
00
ENDCHAR
STARTCHAR 27
ENCODING 27
SWIDTH 540 0
DWIDTH 6 0
BBX 6 8 0 0
BITMAP
00
10
30
7c
30
10
00
00
ENDCHAR
STARTCHAR 28
ENCODING 28
SWIDTH 540 0
DWIDTH 6 0
BBX 6 8 0 0
BITMAP
00
00
00
40
40
40
7c
00
ENDCHAR
STARTCHAR 29
ENCODING 29
SWIDTH 540 0
DWIDTH 6 0
BBX 6 8 0 0
BITMAP
00
28
28
7c
28
28
00
00
ENDCHAR
STARTCHAR 30
ENCODING 30
SWIDTH 540 0
DWIDTH 6 0
BBX 6 8 0 0
BITMAP
10
10
38
38
7c
7c
00
00
ENDCHAR
STARTCHAR 31
ENCODING 31
SWIDTH 540 0
DWIDTH 6 0
BBX 6 8 0 0
BITMAP
7c
7c
38
38
10
10
00
00
ENDCHAR
STARTCHAR 32
ENCODING 32
SWIDTH 540 0
DWIDTH 6 0
BBX 6 8 0 0
BITMAP
00
00
00
00
00
00
00
00
ENDCHAR
STARTCHAR 33
ENCODING 33
SWIDTH 540 0
DWIDTH 6 0
BBX 6 8 0 0
BITMAP
10
38
38
10
10
00
10
00
ENDCHAR
STARTCHAR 34
ENCODING 34
SWIDTH 540 0
DWIDTH 6 0
BBX 6 8 0 0
BITMAP
6c
6c
48
00
00
00
00
00
ENDCHAR
STARTCHAR 35
ENCODING 35
SWIDTH 540 0
DWIDTH 6 0
BBX 6 8 0 0
BITMAP
00
28
7c
28
28
7c
28
00
ENDCHAR
STARTCHAR 36
ENCODING 36
SWIDTH 540 0
DWIDTH 6 0
BBX 6 8 0 0
BITMAP
20
38
40
30
08
70
10
00
ENDCHAR
STARTCHAR 37
ENCODING 37
SWIDTH 540 0
DWIDTH 6 0
BBX 6 8 0 0
BITMAP
64
64
08
10
20
4c
4c
00
ENDCHAR
STARTCHAR 38
ENCODING 38
SWIDTH 540 0
DWIDTH 6 0
BBX 6 8 0 0
BITMAP
20
50
50
20
54
48
34
00
ENDCHAR
STARTCHAR 39
ENCODING 39
SWIDTH 540 0
DWIDTH 6 0
BBX 6 8 0 0
BITMAP
30
30
20
00
00
00
00
00
ENDCHAR
STARTCHAR 40
ENCODING 40
SWIDTH 540 0
DWIDTH 6 0
BBX 6 8 0 0
BITMAP
10
20
20
20
20
20
10
00
ENDCHAR
STARTCHAR 41
ENCODING 41
SWIDTH 540 0
DWIDTH 6 0
BBX 6 8 0 0
BITMAP
20
10
10
10
10
10
20
00
ENDCHAR
STARTCHAR 42
ENCODING 42
SWIDTH 540 0
DWIDTH 6 0
BBX 6 8 0 0
BITMAP
00
28
38
7c
38
28
00
00
ENDCHAR
STARTCHAR 43
ENCODING 43
SWIDTH 540 0
DWIDTH 6 0
BBX 6 8 0 0
BITMAP
00
10
10
7c
10
10
00
00
ENDCHAR
STARTCHAR 44
ENCODING 44
SWIDTH 540 0
DWIDTH 6 0
BBX 6 8 0 0
BITMAP
00
00
00
00
00
30
30
20
ENDCHAR
STARTCHAR 45
ENCODING 45
SWIDTH 540 0
DWIDTH 6 0
BBX 6 8 0 0
BITMAP
00
00
00
7c
00
00
00
00
ENDCHAR
STARTCHAR 46
ENCODING 46
SWIDTH 540 0
DWIDTH 6 0
BBX 6 8 0 0
BITMAP
00
00
00
00
00
30
30
00
ENDCHAR
STARTCHAR 47
ENCODING 47
SWIDTH 540 0
DWIDTH 6 0
BBX 6 8 0 0
BITMAP
00
04
08
10
20
40
00
00
ENDCHAR
STARTCHAR 48
ENCODING 48
SWIDTH 540 0
DWIDTH 6 0
BBX 6 8 0 0
BITMAP
38
44
4c
54
64
44
38
00
ENDCHAR
STARTCHAR 49
ENCODING 49
SWIDTH 540 0
DWIDTH 6 0
BBX 6 8 0 0
BITMAP
10
30
10
10
10
10
38
00
ENDCHAR
STARTCHAR 50
ENCODING 50
SWIDTH 540 0
DWIDTH 6 0
BBX 6 8 0 0
BITMAP
38
44
04
18
20
40
7c
00
ENDCHAR
STARTCHAR 51
ENCODING 51
SWIDTH 540 0
DWIDTH 6 0
BBX 6 8 0 0
BITMAP
38
44
04
38
04
44
38
00
ENDCHAR
STARTCHAR 52
ENCODING 52
SWIDTH 540 0
DWIDTH 6 0
BBX 6 8 0 0
BITMAP
08
18
28
48
7c
08
08
00
ENDCHAR
STARTCHAR 53
ENCODING 53
SWIDTH 540 0
DWIDTH 6 0
BBX 6 8 0 0
BITMAP
7c
40
40
78
04
44
38
00
ENDCHAR
STARTCHAR 54
ENCODING 54
SWIDTH 540 0
DWIDTH 6 0
BBX 6 8 0 0
BITMAP
18
20
40
78
44
44
38
00
ENDCHAR
STARTCHAR 55
ENCODING 55
SWIDTH 540 0
DWIDTH 6 0
BBX 6 8 0 0
BITMAP
7c
04
08
10
20
20
20
00
ENDCHAR
STARTCHAR 56
ENCODING 56
SWIDTH 540 0
DWIDTH 6 0
BBX 6 8 0 0
BITMAP
38
44
44
38
44
44
38
00
ENDCHAR
STARTCHAR 57
ENCODING 57
SWIDTH 540 0
DWIDTH 6 0
BBX 6 8 0 0
BITMAP
38
44
44
3c
04
08
30
00
ENDCHAR
STARTCHAR 58
ENCODING 58
SWIDTH 540 0
DWIDTH 6 0
BBX 6 8 0 0
BITMAP
00
00
30
30
00
30
30
00
ENDCHAR
STARTCHAR 59
ENCODING 59
SWIDTH 540 0
DWIDTH 6 0
BBX 6 8 0 0
BITMAP
00
00
30
30
00
30
30
20
ENDCHAR
STARTCHAR 60
ENCODING 60
SWIDTH 540 0
DWIDTH 6 0
BBX 6 8 0 0
BITMAP
08
10
20
40
20
10
08
00
ENDCHAR
STARTCHAR 61
ENCODING 61
SWIDTH 540 0
DWIDTH 6 0
BBX 6 8 0 0
BITMAP
00
00
7c
00
00
7c
00
00
ENDCHAR
STARTCHAR 62
ENCODING 62
SWIDTH 540 0
DWIDTH 6 0
BBX 6 8 0 0
BITMAP
20
10
08
04
08
10
20
00
ENDCHAR
STARTCHAR 63
ENCODING 63
SWIDTH 540 0
DWIDTH 6 0
BBX 6 8 0 0
BITMAP
38
44
04
18
10
00
10
00
ENDCHAR
STARTCHAR 64
ENCODING 64
SWIDTH 540 0
DWIDTH 6 0
BBX 6 8 0 0
BITMAP
38
44
5c
54
5c
40
38
00
ENDCHAR
STARTCHAR 65
ENCODING 65
SWIDTH 540 0
DWIDTH 6 0
BBX 6 8 0 0
BITMAP
38
44
44
44
7c
44
44
00
ENDCHAR
STARTCHAR 66
ENCODING 66
SWIDTH 540 0
DWIDTH 6 0
BBX 6 8 0 0
BITMAP
78
44
44
78
44
44
78
00
ENDCHAR
STARTCHAR 67
ENCODING 67
SWIDTH 540 0
DWIDTH 6 0
BBX 6 8 0 0
BITMAP
38
44
40
40
40
44
38
00
ENDCHAR
STARTCHAR 68
ENCODING 68
SWIDTH 540 0
DWIDTH 6 0
BBX 6 8 0 0
BITMAP
78
44
44
44
44
44
78
00
ENDCHAR
STARTCHAR 69
ENCODING 69
SWIDTH 540 0
DWIDTH 6 0
BBX 6 8 0 0
BITMAP
7c
40
40
78
40
40
7c
00
ENDCHAR
STARTCHAR 70
ENCODING 70
SWIDTH 540 0
DWIDTH 6 0
BBX 6 8 0 0
BITMAP
7c
40
40
78
40
40
40
00
ENDCHAR
STARTCHAR 71
ENCODING 71
SWIDTH 540 0
DWIDTH 6 0
BBX 6 8 0 0
BITMAP
38
44
40
5c
44
44
3c
00
ENDCHAR
STARTCHAR 72
ENCODING 72
SWIDTH 540 0
DWIDTH 6 0
BBX 6 8 0 0
BITMAP
44
44
44
7c
44
44
44
00
ENDCHAR
STARTCHAR 73
ENCODING 73
SWIDTH 540 0
DWIDTH 6 0
BBX 6 8 0 0
BITMAP
38
10
10
10
10
10
38
00
ENDCHAR
STARTCHAR 74
ENCODING 74
SWIDTH 540 0
DWIDTH 6 0
BBX 6 8 0 0
BITMAP
04
04
04
04
44
44
38
00
ENDCHAR
STARTCHAR 75
ENCODING 75
SWIDTH 540 0
DWIDTH 6 0
BBX 6 8 0 0
BITMAP
44
48
50
60
50
48
44
00
ENDCHAR
STARTCHAR 76
ENCODING 76
SWIDTH 540 0
DWIDTH 6 0
BBX 6 8 0 0
BITMAP
40
40
40
40
40
40
7c
00
ENDCHAR
STARTCHAR 77
ENCODING 77
SWIDTH 540 0
DWIDTH 6 0
BBX 6 8 0 0
BITMAP
44
6c
54
44
44
44
44
00
ENDCHAR
STARTCHAR 78
ENCODING 78
SWIDTH 540 0
DWIDTH 6 0
BBX 6 8 0 0
BITMAP
44
64
54
4c
44
44
44
00
ENDCHAR
STARTCHAR 79
ENCODING 79
SWIDTH 540 0
DWIDTH 6 0
BBX 6 8 0 0
BITMAP
38
44
44
44
44
44
38
00
ENDCHAR
STARTCHAR 80
ENCODING 80
SWIDTH 540 0
DWIDTH 6 0
BBX 6 8 0 0
BITMAP
78
44
44
78
40
40
40
00
ENDCHAR
STARTCHAR 81
ENCODING 81
SWIDTH 540 0
DWIDTH 6 0
BBX 6 8 0 0
BITMAP
38
44
44
44
54
48
34
00
ENDCHAR
STARTCHAR 82
ENCODING 82
SWIDTH 540 0
DWIDTH 6 0
BBX 6 8 0 0
BITMAP
78
44
44
78
48
44
44
00
ENDCHAR
STARTCHAR 83
ENCODING 83
SWIDTH 540 0
DWIDTH 6 0
BBX 6 8 0 0
BITMAP
38
44
40
38
04
44
38
00
ENDCHAR
STARTCHAR 84
ENCODING 84
SWIDTH 540 0
DWIDTH 6 0
BBX 6 8 0 0
BITMAP
7c
10
10
10
10
10
10
00
ENDCHAR
STARTCHAR 85
ENCODING 85
SWIDTH 540 0
DWIDTH 6 0
BBX 6 8 0 0
BITMAP
44
44
44
44
44
44
38
00
ENDCHAR
STARTCHAR 86
ENCODING 86
SWIDTH 540 0
DWIDTH 6 0
BBX 6 8 0 0
BITMAP
44
44
44
44
44
28
10
00
ENDCHAR
STARTCHAR 87
ENCODING 87
SWIDTH 540 0
DWIDTH 6 0
BBX 6 8 0 0
BITMAP
44
44
54
54
54
54
28
00
ENDCHAR
STARTCHAR 88
ENCODING 88
SWIDTH 540 0
DWIDTH 6 0
BBX 6 8 0 0
BITMAP
44
44
28
10
28
44
44
00
ENDCHAR
STARTCHAR 89
ENCODING 89
SWIDTH 540 0
DWIDTH 6 0
BBX 6 8 0 0
BITMAP
44
44
44
28
10
10
10
00
ENDCHAR
STARTCHAR 90
ENCODING 90
SWIDTH 540 0
DWIDTH 6 0
BBX 6 8 0 0
BITMAP
78
08
10
20
40
40
78
00
ENDCHAR
STARTCHAR 91
ENCODING 91
SWIDTH 540 0
DWIDTH 6 0
BBX 6 8 0 0
BITMAP
38
20
20
20
20
20
38
00
ENDCHAR
STARTCHAR 92
ENCODING 92
SWIDTH 540 0
DWIDTH 6 0
BBX 6 8 0 0
BITMAP
00
40
20
10
08
04
00
00
ENDCHAR
STARTCHAR 93
ENCODING 93
SWIDTH 540 0
DWIDTH 6 0
BBX 6 8 0 0
BITMAP
38
08
08
08
08
08
38
00
ENDCHAR
STARTCHAR 94
ENCODING 94
SWIDTH 540 0
DWIDTH 6 0
BBX 6 8 0 0
BITMAP
10
28
44
00
00
00
00
00
ENDCHAR
STARTCHAR 95
ENCODING 95
SWIDTH 540 0
DWIDTH 6 0
BBX 6 8 0 0
BITMAP
00
00
00
00
00
00
00
fc
ENDCHAR
STARTCHAR 96
ENCODING 96
SWIDTH 540 0
DWIDTH 6 0
BBX 6 8 0 0
BITMAP
30
30
10
00
00
00
00
00
ENDCHAR
STARTCHAR 97
ENCODING 97
SWIDTH 540 0
DWIDTH 6 0
BBX 6 8 0 0
BITMAP
00
00
38
04
3c
44
3c
00
ENDCHAR
STARTCHAR 98
ENCODING 98
SWIDTH 540 0
DWIDTH 6 0
BBX 6 8 0 0
BITMAP
40
40
78
44
44
44
78
00
ENDCHAR
STARTCHAR 99
ENCODING 99
SWIDTH 540 0
DWIDTH 6 0
BBX 6 8 0 0
BITMAP
00
00
38
44
40
44
38
00
ENDCHAR
STARTCHAR 100
ENCODING 100
SWIDTH 540 0
DWIDTH 6 0
BBX 6 8 0 0
BITMAP
04
04
3c
44
44
44
3c
00
ENDCHAR
STARTCHAR 101
ENCODING 101
SWIDTH 540 0
DWIDTH 6 0
BBX 6 8 0 0
BITMAP
00
00
38
44
78
40
38
00
ENDCHAR
STARTCHAR 102
ENCODING 102
SWIDTH 540 0
DWIDTH 6 0
BBX 6 8 0 0
BITMAP
18
20
20
78
20
20
20
00
ENDCHAR
STARTCHAR 103
ENCODING 103
SWIDTH 540 0
DWIDTH 6 0
BBX 6 8 0 0
BITMAP
00
00
3c
44
44
3c
04
38
ENDCHAR
STARTCHAR 104
ENCODING 104
SWIDTH 540 0
DWIDTH 6 0
BBX 6 8 0 0
BITMAP
40
40
70
48
48
48
48
00
ENDCHAR
STARTCHAR 105
ENCODING 105
SWIDTH 540 0
DWIDTH 6 0
BBX 6 8 0 0
BITMAP
10
00
10
10
10
10
18
00
ENDCHAR
STARTCHAR 106
ENCODING 106
SWIDTH 540 0
DWIDTH 6 0
BBX 6 8 0 0
BITMAP
08
00
18
08
08
08
48
30
ENDCHAR
STARTCHAR 107
ENCODING 107
SWIDTH 540 0
DWIDTH 6 0
BBX 6 8 0 0
BITMAP
40
40
48
50
60
50
48
00
ENDCHAR
STARTCHAR 108
ENCODING 108
SWIDTH 540 0
DWIDTH 6 0
BBX 6 8 0 0
BITMAP
10
10
10
10
10
10
18
00
ENDCHAR
STARTCHAR 109
ENCODING 109
SWIDTH 540 0
DWIDTH 6 0
BBX 6 8 0 0
BITMAP
00
00
68
54
54
44
44
00
ENDCHAR
STARTCHAR 110
ENCODING 110
SWIDTH 540 0
DWIDTH 6 0
BBX 6 8 0 0
BITMAP
00
00
70
48
48
48
48
00
ENDCHAR
STARTCHAR 111
ENCODING 111
SWIDTH 540 0
DWIDTH 6 0
BBX 6 8 0 0
BITMAP
00
00
38
44
44
44
38
00
ENDCHAR
STARTCHAR 112
ENCODING 112
SWIDTH 540 0
DWIDTH 6 0
BBX 6 8 0 0
BITMAP
00
00
78
44
44
44
78
40
ENDCHAR
STARTCHAR 113
ENCODING 113
SWIDTH 540 0
DWIDTH 6 0
BBX 6 8 0 0
BITMAP
00
00
3c
44
44
44
3c
04
ENDCHAR
STARTCHAR 114
ENCODING 114
SWIDTH 540 0
DWIDTH 6 0
BBX 6 8 0 0
BITMAP
00
00
58
24
20
20
70
00
ENDCHAR
STARTCHAR 115
ENCODING 115
SWIDTH 540 0
DWIDTH 6 0
BBX 6 8 0 0
BITMAP
00
00
38
40
38
04
38
00
ENDCHAR
STARTCHAR 116
ENCODING 116
SWIDTH 540 0
DWIDTH 6 0
BBX 6 8 0 0
BITMAP
00
20
78
20
20
28
10
00
ENDCHAR
STARTCHAR 117
ENCODING 117
SWIDTH 540 0
DWIDTH 6 0
BBX 6 8 0 0
BITMAP
00
00
48
48
48
58
28
00
ENDCHAR
STARTCHAR 118
ENCODING 118
SWIDTH 540 0
DWIDTH 6 0
BBX 6 8 0 0
BITMAP
00
00
44
44
44
28
10
00
ENDCHAR
STARTCHAR 119
ENCODING 119
SWIDTH 540 0
DWIDTH 6 0
BBX 6 8 0 0
BITMAP
00
00
44
44
54
7c
28
00
ENDCHAR
STARTCHAR 120
ENCODING 120
SWIDTH 540 0
DWIDTH 6 0
BBX 6 8 0 0
BITMAP
00
00
48
48
30
48
48
00
ENDCHAR
STARTCHAR 121
ENCODING 121
SWIDTH 540 0
DWIDTH 6 0
BBX 6 8 0 0
BITMAP
00
00
48
48
48
38
10
60
ENDCHAR
STARTCHAR 122
ENCODING 122
SWIDTH 540 0
DWIDTH 6 0
BBX 6 8 0 0
BITMAP
00
00
78
08
30
40
78
00
ENDCHAR
STARTCHAR 123
ENCODING 123
SWIDTH 540 0
DWIDTH 6 0
BBX 6 8 0 0
BITMAP
18
20
20
60
20
20
18
00
ENDCHAR
STARTCHAR 124
ENCODING 124
SWIDTH 540 0
DWIDTH 6 0
BBX 6 8 0 0
BITMAP
10
10
10
00
10
10
10
00
ENDCHAR
STARTCHAR 125
ENCODING 125
SWIDTH 540 0
DWIDTH 6 0
BBX 6 8 0 0
BITMAP
30
08
08
0c
08
08
30
00
ENDCHAR
STARTCHAR 126
ENCODING 126
SWIDTH 540 0
DWIDTH 6 0
BBX 6 8 0 0
BITMAP
28
50
00
00
00
00
00
00
ENDCHAR
STARTCHAR 127
ENCODING 127
SWIDTH 540 0
DWIDTH 6 0
BBX 6 8 0 0
BITMAP
10
38
6c
44
44
7c
00
00
ENDCHAR
STARTCHAR 128
ENCODING 128
SWIDTH 540 0
DWIDTH 6 0
BBX 6 8 0 0
BITMAP
38
44
40
40
44
38
10
30
ENDCHAR
STARTCHAR 129
ENCODING 129
SWIDTH 540 0
DWIDTH 6 0
BBX 6 8 0 0
BITMAP
48
00
48
48
48
58
28
00
ENDCHAR
STARTCHAR 130
ENCODING 130
SWIDTH 540 0
DWIDTH 6 0
BBX 6 8 0 0
BITMAP
0c
00
38
44
78
40
38
00
ENDCHAR
STARTCHAR 131
ENCODING 131
SWIDTH 540 0
DWIDTH 6 0
BBX 6 8 0 0
BITMAP
38
00
38
04
3c
44
3c
00
ENDCHAR
STARTCHAR 132
ENCODING 132
SWIDTH 540 0
DWIDTH 6 0
BBX 6 8 0 0
BITMAP
28
00
38
04
3c
44
3c
00
ENDCHAR
STARTCHAR 133
ENCODING 133
SWIDTH 540 0
DWIDTH 6 0
BBX 6 8 0 0
BITMAP
30
00
38
04
3c
44
3c
00
ENDCHAR
STARTCHAR 134
ENCODING 134
SWIDTH 540 0
DWIDTH 6 0
BBX 6 8 0 0
BITMAP
38
28
38
04
3c
44
3c
00
ENDCHAR
STARTCHAR 135
ENCODING 135
SWIDTH 540 0
DWIDTH 6 0
BBX 6 8 0 0
BITMAP
00
38
44
40
44
38
10
30
ENDCHAR
STARTCHAR 136
ENCODING 136
SWIDTH 540 0
DWIDTH 6 0
BBX 6 8 0 0
BITMAP
38
00
38
44
78
40
38
00
ENDCHAR
STARTCHAR 137
ENCODING 137
SWIDTH 540 0
DWIDTH 6 0
BBX 6 8 0 0
BITMAP
28
00
38
44
78
40
38
00
ENDCHAR
STARTCHAR 138
ENCODING 138
SWIDTH 540 0
DWIDTH 6 0
BBX 6 8 0 0
BITMAP
30
00
38
44
78
40
38
00
ENDCHAR
STARTCHAR 139
ENCODING 139
SWIDTH 540 0
DWIDTH 6 0
BBX 6 8 0 0
BITMAP
28
00
10
10
10
10
18
00
ENDCHAR
STARTCHAR 140
ENCODING 140
SWIDTH 540 0
DWIDTH 6 0
BBX 6 8 0 0
BITMAP
10
28
00
10
10
10
18
00
ENDCHAR
STARTCHAR 141
ENCODING 141
SWIDTH 540 0
DWIDTH 6 0
BBX 6 8 0 0
BITMAP
20
00
10
10
10
10
18
00
ENDCHAR
STARTCHAR 142
ENCODING 142
SWIDTH 540 0
DWIDTH 6 0
BBX 6 8 0 0
BITMAP
28
00
10
28
44
7c
44
00
ENDCHAR
STARTCHAR 143
ENCODING 143
SWIDTH 540 0
DWIDTH 6 0
BBX 6 8 0 0
BITMAP
38
28
38
6c
44
7c
44
00
ENDCHAR
STARTCHAR 144
ENCODING 144
SWIDTH 540 0
DWIDTH 6 0
BBX 6 8 0 0
BITMAP
0c
00
7c
40
78
40
7c
00
ENDCHAR
STARTCHAR 145
ENCODING 145
SWIDTH 540 0
DWIDTH 6 0
BBX 6 8 0 0
BITMAP
00
00
78
14
7c
50
3c
00
ENDCHAR
STARTCHAR 146
ENCODING 146
SWIDTH 540 0
DWIDTH 6 0
BBX 6 8 0 0
BITMAP
3c
50
50
7c
50
50
5c
00
ENDCHAR
STARTCHAR 147
ENCODING 147
SWIDTH 540 0
DWIDTH 6 0
BBX 6 8 0 0
BITMAP
38
00
30
48
48
48
30
00
ENDCHAR
STARTCHAR 148
ENCODING 148
SWIDTH 540 0
DWIDTH 6 0
BBX 6 8 0 0
BITMAP
28
00
30
48
48
48
30
00
ENDCHAR
STARTCHAR 149
ENCODING 149
SWIDTH 540 0
DWIDTH 6 0
BBX 6 8 0 0
BITMAP
60
00
30
48
48
48
30
00
ENDCHAR
STARTCHAR 150
ENCODING 150
SWIDTH 540 0
DWIDTH 6 0
BBX 6 8 0 0
BITMAP
38
00
48
48
48
58
28
00
ENDCHAR
STARTCHAR 151
ENCODING 151
SWIDTH 540 0
DWIDTH 6 0
BBX 6 8 0 0
BITMAP
60
00
48
48
48
58
28
00
ENDCHAR
STARTCHAR 152
ENCODING 152
SWIDTH 540 0
DWIDTH 6 0
BBX 6 8 0 0
BITMAP
28
00
48
48
48
38
10
60
ENDCHAR
STARTCHAR 153
ENCODING 153
SWIDTH 540 0
DWIDTH 6 0
BBX 6 8 0 0
BITMAP
48
30
48
48
48
48
30
00
ENDCHAR
STARTCHAR 154
ENCODING 154
SWIDTH 540 0
DWIDTH 6 0
BBX 6 8 0 0
BITMAP
28
00
48
48
48
48
30
00
ENDCHAR
STARTCHAR 155
ENCODING 155
SWIDTH 540 0
DWIDTH 6 0
BBX 6 8 0 0
BITMAP
00
10
38
40
40
38
10
00
ENDCHAR
STARTCHAR 156
ENCODING 156
SWIDTH 540 0
DWIDTH 6 0
BBX 6 8 0 0
BITMAP
18
24
20
78
20
24
5c
00
ENDCHAR
STARTCHAR 157
ENCODING 157
SWIDTH 540 0
DWIDTH 6 0
BBX 6 8 0 0
BITMAP
44
28
10
7c
10
7c
10
00
ENDCHAR
STARTCHAR 158
ENCODING 158
SWIDTH 540 0
DWIDTH 6 0
BBX 6 8 0 0
BITMAP
60
50
50
68
5c
48
48
00
ENDCHAR
STARTCHAR 159
ENCODING 159
SWIDTH 540 0
DWIDTH 6 0
BBX 6 8 0 0
BITMAP
08
14
10
38
10
10
50
20
ENDCHAR
STARTCHAR 160
ENCODING 160
SWIDTH 540 0
DWIDTH 6 0
BBX 6 8 0 0
BITMAP
18
00
38
04
3c
44
3c
00
ENDCHAR
STARTCHAR 161
ENCODING 161
SWIDTH 540 0
DWIDTH 6 0
BBX 6 8 0 0
BITMAP
18
00
10
10
10
10
18
00
ENDCHAR
STARTCHAR 162
ENCODING 162
SWIDTH 540 0
DWIDTH 6 0
BBX 6 8 0 0
BITMAP
18
00
30
48
48
48
30
00
ENDCHAR
STARTCHAR 163
ENCODING 163
SWIDTH 540 0
DWIDTH 6 0
BBX 6 8 0 0
BITMAP
18
00
48
48
48
58
28
00
ENDCHAR
STARTCHAR 164
ENCODING 164
SWIDTH 540 0
DWIDTH 6 0
BBX 6 8 0 0
BITMAP
28
50
00
70
48
48
48
00
ENDCHAR
STARTCHAR 165
ENCODING 165
SWIDTH 540 0
DWIDTH 6 0
BBX 6 8 0 0
BITMAP
28
50
00
48
68
58
48
00
ENDCHAR
STARTCHAR 166
ENCODING 166
SWIDTH 540 0
DWIDTH 6 0
BBX 6 8 0 0
BITMAP
38
04
3c
44
3c
00
3c
00
ENDCHAR
STARTCHAR 167
ENCODING 167
SWIDTH 540 0
DWIDTH 6 0
BBX 6 8 0 0
BITMAP
30
48
48
48
30
00
78
00
ENDCHAR
STARTCHAR 168
ENCODING 168
SWIDTH 540 0
DWIDTH 6 0
BBX 6 8 0 0
BITMAP
10
00
10
30
40
44
38
00
ENDCHAR
STARTCHAR 169
ENCODING 169
SWIDTH 540 0
DWIDTH 6 0
BBX 6 8 0 0
BITMAP
00
00
7c
40
40
40
00
00
ENDCHAR
STARTCHAR 170
ENCODING 170
SWIDTH 540 0
DWIDTH 6 0
BBX 6 8 0 0
BITMAP
00
00
fc
04
04
00
00
00
ENDCHAR
STARTCHAR 171
ENCODING 171
SWIDTH 540 0
DWIDTH 6 0
BBX 6 8 0 0
BITMAP
40
48
50
38
44
08
1c
00
ENDCHAR
STARTCHAR 172
ENCODING 172
SWIDTH 540 0
DWIDTH 6 0
BBX 6 8 0 0
BITMAP
40
48
50
2c
54
1c
04
00
ENDCHAR
STARTCHAR 173
ENCODING 173
SWIDTH 540 0
DWIDTH 6 0
BBX 6 8 0 0
BITMAP
10
00
10
10
38
38
10
00
ENDCHAR
STARTCHAR 174
ENCODING 174
SWIDTH 540 0
DWIDTH 6 0
BBX 6 8 0 0
BITMAP
00
00
24
48
24
00
00
00
ENDCHAR
STARTCHAR 175
ENCODING 175
SWIDTH 540 0
DWIDTH 6 0
BBX 6 8 0 0
BITMAP
00
00
48
24
48
00
00
00
ENDCHAR
STARTCHAR 176
ENCODING 176
SWIDTH 540 0
DWIDTH 6 0
BBX 6 8 0 0
BITMAP
54
00
a8
00
54
00
a8
00
ENDCHAR
STARTCHAR 177
ENCODING 177
SWIDTH 540 0
DWIDTH 6 0
BBX 6 8 0 0
BITMAP
54
a8
54
a8
54
a8
54
a8
ENDCHAR
STARTCHAR 178
ENCODING 178
SWIDTH 540 0
DWIDTH 6 0
BBX 6 8 0 0
BITMAP
a8
fc
54
fc
a8
fc
54
fc
ENDCHAR
STARTCHAR 179
ENCODING 179
SWIDTH 540 0
DWIDTH 6 0
BBX 6 8 0 0
BITMAP
10
10
10
10
10
10
10
10
ENDCHAR
STARTCHAR 180
ENCODING 180
SWIDTH 540 0
DWIDTH 6 0
BBX 6 8 0 0
BITMAP
10
10
10
f0
10
10
10
10
ENDCHAR
STARTCHAR 181
ENCODING 181
SWIDTH 540 0
DWIDTH 6 0
BBX 6 8 0 0
BITMAP
10
f0
10
f0
10
10
10
10
ENDCHAR
STARTCHAR 182
ENCODING 182
SWIDTH 540 0
DWIDTH 6 0
BBX 6 8 0 0
BITMAP
50
50
50
d0
50
50
50
50
ENDCHAR
STARTCHAR 183
ENCODING 183
SWIDTH 540 0
DWIDTH 6 0
BBX 6 8 0 0
BITMAP
00
00
00
f0
50
50
50
50
ENDCHAR
STARTCHAR 184
ENCODING 184
SWIDTH 540 0
DWIDTH 6 0
BBX 6 8 0 0
BITMAP
00
f0
10
f0
10
10
10
10
ENDCHAR
STARTCHAR 185
ENCODING 185
SWIDTH 540 0
DWIDTH 6 0
BBX 6 8 0 0
BITMAP
50
d0
10
d0
50
50
50
50
ENDCHAR
STARTCHAR 186
ENCODING 186
SWIDTH 540 0
DWIDTH 6 0
BBX 6 8 0 0
BITMAP
50
50
50
50
50
50
50
50
ENDCHAR
STARTCHAR 187
ENCODING 187
SWIDTH 540 0
DWIDTH 6 0
BBX 6 8 0 0
BITMAP
00
f0
10
d0
50
50
50
50
ENDCHAR
STARTCHAR 188
ENCODING 188
SWIDTH 540 0
DWIDTH 6 0
BBX 6 8 0 0
BITMAP
50
d0
10
f0
00
00
00
00
ENDCHAR
STARTCHAR 189
ENCODING 189
SWIDTH 540 0
DWIDTH 6 0
BBX 6 8 0 0
BITMAP
50
50
50
f0
00
00
00
00
ENDCHAR
STARTCHAR 190
ENCODING 190
SWIDTH 540 0
DWIDTH 6 0
BBX 6 8 0 0
BITMAP
10
f0
10
f0
00
00
00
00
ENDCHAR
STARTCHAR 191
ENCODING 191
SWIDTH 540 0
DWIDTH 6 0
BBX 6 8 0 0
BITMAP
00
00
00
f0
10
10
10
10
ENDCHAR
STARTCHAR 192
ENCODING 192
SWIDTH 540 0
DWIDTH 6 0
BBX 6 8 0 0
BITMAP
10
10
10
1c
00
00
00
00
ENDCHAR
STARTCHAR 193
ENCODING 193
SWIDTH 540 0
DWIDTH 6 0
BBX 6 8 0 0
BITMAP
10
10
10
fc
00
00
00
00
ENDCHAR
STARTCHAR 194
ENCODING 194
SWIDTH 540 0
DWIDTH 6 0
BBX 6 8 0 0
BITMAP
00
00
00
fc
10
10
10
10
ENDCHAR
STARTCHAR 195
ENCODING 195
SWIDTH 540 0
DWIDTH 6 0
BBX 6 8 0 0
BITMAP
10
10
10
1c
10
10
10
10
ENDCHAR
STARTCHAR 196
ENCODING 196
SWIDTH 540 0
DWIDTH 6 0
BBX 6 8 0 0
BITMAP
00
00
00
fc
00
00
00
00
ENDCHAR
STARTCHAR 197
ENCODING 197
SWIDTH 540 0
DWIDTH 6 0
BBX 6 8 0 0
BITMAP
10
10
10
fc
10
10
10
10
ENDCHAR
STARTCHAR 198
ENCODING 198
SWIDTH 540 0
DWIDTH 6 0
BBX 6 8 0 0
BITMAP
10
1c
10
1c
10
10
10
10
ENDCHAR
STARTCHAR 199
ENCODING 199
SWIDTH 540 0
DWIDTH 6 0
BBX 6 8 0 0
BITMAP
50
50
50
5c
50
50
50
50
ENDCHAR
STARTCHAR 200
ENCODING 200
SWIDTH 540 0
DWIDTH 6 0
BBX 6 8 0 0
BITMAP
50
5c
40
7c
00
00
00
00
ENDCHAR
STARTCHAR 201
ENCODING 201
SWIDTH 540 0
DWIDTH 6 0
BBX 6 8 0 0
BITMAP
00
7c
40
5c
50
50
50
50
ENDCHAR
STARTCHAR 202
ENCODING 202
SWIDTH 540 0
DWIDTH 6 0
BBX 6 8 0 0
BITMAP
50
dc
00
fc
00
00
00
00
ENDCHAR
STARTCHAR 203
ENCODING 203
SWIDTH 540 0
DWIDTH 6 0
BBX 6 8 0 0
BITMAP
00
fc
00
dc
50
50
50
50
ENDCHAR
STARTCHAR 204
ENCODING 204
SWIDTH 540 0
DWIDTH 6 0
BBX 6 8 0 0
BITMAP
50
5c
40
5c
50
50
50
50
ENDCHAR
STARTCHAR 205
ENCODING 205
SWIDTH 540 0
DWIDTH 6 0
BBX 6 8 0 0
BITMAP
00
fc
00
fc
00
00
00
00
ENDCHAR
STARTCHAR 206
ENCODING 206
SWIDTH 540 0
DWIDTH 6 0
BBX 6 8 0 0
BITMAP
50
dc
00
dc
50
50
50
50
ENDCHAR
STARTCHAR 207
ENCODING 207
SWIDTH 540 0
DWIDTH 6 0
BBX 6 8 0 0
BITMAP
10
fc
00
fc
00
00
00
00
ENDCHAR
STARTCHAR 208
ENCODING 208
SWIDTH 540 0
DWIDTH 6 0
BBX 6 8 0 0
BITMAP
50
50
50
fc
00
00
00
00
ENDCHAR
STARTCHAR 209
ENCODING 209
SWIDTH 540 0
DWIDTH 6 0
BBX 6 8 0 0
BITMAP
00
fc
00
fc
10
10
10
10
ENDCHAR
STARTCHAR 210
ENCODING 210
SWIDTH 540 0
DWIDTH 6 0
BBX 6 8 0 0
BITMAP
00
00
00
fc
50
50
50
50
ENDCHAR
STARTCHAR 211
ENCODING 211
SWIDTH 540 0
DWIDTH 6 0
BBX 6 8 0 0
BITMAP
50
50
50
7c
00
00
00
00
ENDCHAR
STARTCHAR 212
ENCODING 212
SWIDTH 540 0
DWIDTH 6 0
BBX 6 8 0 0
BITMAP
10
1c
10
1c
00
00
00
00
ENDCHAR
STARTCHAR 213
ENCODING 213
SWIDTH 540 0
DWIDTH 6 0
BBX 6 8 0 0
BITMAP
00
1c
10
1c
10
10
10
10
ENDCHAR
STARTCHAR 214
ENCODING 214
SWIDTH 540 0
DWIDTH 6 0
BBX 6 8 0 0
BITMAP
00
00
00
7c
50
50
50
50
ENDCHAR
STARTCHAR 215
ENCODING 215
SWIDTH 540 0
DWIDTH 6 0
BBX 6 8 0 0
BITMAP
50
50
50
dc
50
50
50
50
ENDCHAR
STARTCHAR 216
ENCODING 216
SWIDTH 540 0
DWIDTH 6 0
BBX 6 8 0 0
BITMAP
10
fc
00
fc
10
10
10
10
ENDCHAR
STARTCHAR 217
ENCODING 217
SWIDTH 540 0
DWIDTH 6 0
BBX 6 8 0 0
BITMAP
10
10
10
f0
00
00
00
00
ENDCHAR
STARTCHAR 218
ENCODING 218
SWIDTH 540 0
DWIDTH 6 0
BBX 6 8 0 0
BITMAP
00
00
00
1c
10
10
10
10
ENDCHAR
STARTCHAR 219
ENCODING 219
SWIDTH 540 0
DWIDTH 6 0
BBX 6 8 0 0
BITMAP
fc
fc
fc
fc
fc
fc
fc
fc
ENDCHAR
STARTCHAR 220
ENCODING 220
SWIDTH 540 0
DWIDTH 6 0
BBX 6 8 0 0
BITMAP
00
00
00
00
fc
fc
fc
fc
ENDCHAR
STARTCHAR 221
ENCODING 221
SWIDTH 540 0
DWIDTH 6 0
BBX 6 8 0 0
BITMAP
e0
e0
e0
e0
e0
e0
e0
e0
ENDCHAR
STARTCHAR 222
ENCODING 222
SWIDTH 540 0
DWIDTH 6 0
BBX 6 8 0 0
BITMAP
1c
1c
1c
1c
1c
1c
1c
1c
ENDCHAR
STARTCHAR 223
ENCODING 223
SWIDTH 540 0
DWIDTH 6 0
BBX 6 8 0 0
BITMAP
fc
fc
fc
fc
00
00
00
00
ENDCHAR
STARTCHAR 224
ENCODING 224
SWIDTH 540 0
DWIDTH 6 0
BBX 6 8 0 0
BITMAP
00
00
34
48
48
34
00
00
ENDCHAR
STARTCHAR 225
ENCODING 225
SWIDTH 540 0
DWIDTH 6 0
BBX 6 8 0 0
BITMAP
00
70
48
70
48
48
70
40
ENDCHAR
STARTCHAR 226
ENCODING 226
SWIDTH 540 0
DWIDTH 6 0
BBX 6 8 0 0
BITMAP
78
48
40
40
40
40
40
00
ENDCHAR
STARTCHAR 227
ENCODING 227
SWIDTH 540 0
DWIDTH 6 0
BBX 6 8 0 0
BITMAP
00
7c
28
28
28
28
28
00
ENDCHAR
STARTCHAR 228
ENCODING 228
SWIDTH 540 0
DWIDTH 6 0
BBX 6 8 0 0
BITMAP
78
48
20
10
20
48
78
00
ENDCHAR
STARTCHAR 229
ENCODING 229
SWIDTH 540 0
DWIDTH 6 0
BBX 6 8 0 0
BITMAP
00
00
3c
48
48
30
00
00
ENDCHAR
STARTCHAR 230
ENCODING 230
SWIDTH 540 0
DWIDTH 6 0
BBX 6 8 0 0
BITMAP
00
00
48
48
48
70
40
40
ENDCHAR
STARTCHAR 231
ENCODING 231
SWIDTH 540 0
DWIDTH 6 0
BBX 6 8 0 0
BITMAP
00
00
28
50
10
10
10
00
ENDCHAR
STARTCHAR 232
ENCODING 232
SWIDTH 540 0
DWIDTH 6 0
BBX 6 8 0 0
BITMAP
38
10
38
44
38
10
38
00
ENDCHAR
STARTCHAR 233
ENCODING 233
SWIDTH 540 0
DWIDTH 6 0
BBX 6 8 0 0
BITMAP
30
48
48
78
48
48
30
00
ENDCHAR
STARTCHAR 234
ENCODING 234
SWIDTH 540 0
DWIDTH 6 0
BBX 6 8 0 0
BITMAP
00
38
44
44
28
28
6c
00
ENDCHAR
STARTCHAR 235
ENCODING 235
SWIDTH 540 0
DWIDTH 6 0
BBX 6 8 0 0
BITMAP
30
40
20
10
38
48
30
00
ENDCHAR
STARTCHAR 236
ENCODING 236
SWIDTH 540 0
DWIDTH 6 0
BBX 6 8 0 0
BITMAP
00
00
28
54
54
28
00
00
ENDCHAR
STARTCHAR 237
ENCODING 237
SWIDTH 540 0
DWIDTH 6 0
BBX 6 8 0 0
BITMAP
00
10
38
54
54
38
10
00
ENDCHAR
STARTCHAR 238
ENCODING 238
SWIDTH 540 0
DWIDTH 6 0
BBX 6 8 0 0
BITMAP
00
38
40
78
40
38
00
00
ENDCHAR
STARTCHAR 239
ENCODING 239
SWIDTH 540 0
DWIDTH 6 0
BBX 6 8 0 0
BITMAP
00
30
48
48
48
48
00
00
ENDCHAR
STARTCHAR 240
ENCODING 240
SWIDTH 540 0
DWIDTH 6 0
BBX 6 8 0 0
BITMAP
00
78
00
78
00
78
00
00
ENDCHAR
STARTCHAR 241
ENCODING 241
SWIDTH 540 0
DWIDTH 6 0
BBX 6 8 0 0
BITMAP
00
10
38
10
00
38
00
00
ENDCHAR
STARTCHAR 242
ENCODING 242
SWIDTH 540 0
DWIDTH 6 0
BBX 6 8 0 0
BITMAP
40
30
08
30
40
00
78
00
ENDCHAR
STARTCHAR 243
ENCODING 243
SWIDTH 540 0
DWIDTH 6 0
BBX 6 8 0 0
BITMAP
08
30
40
30
08
00
78
00
ENDCHAR
STARTCHAR 244
ENCODING 244
SWIDTH 540 0
DWIDTH 6 0
BBX 6 8 0 0
BITMAP
00
08
14
10
10
10
10
10
ENDCHAR
STARTCHAR 245
ENCODING 245
SWIDTH 540 0
DWIDTH 6 0
BBX 6 8 0 0
BITMAP
10
10
10
10
10
50
20
00
ENDCHAR
STARTCHAR 246
ENCODING 246
SWIDTH 540 0
DWIDTH 6 0
BBX 6 8 0 0
BITMAP
00
10
00
7c
00
10
00
00
ENDCHAR
STARTCHAR 247
ENCODING 247
SWIDTH 540 0
DWIDTH 6 0
BBX 6 8 0 0
BITMAP
00
28
50
00
28
50
00
00
ENDCHAR
STARTCHAR 248
ENCODING 248
SWIDTH 540 0
DWIDTH 6 0
BBX 6 8 0 0
BITMAP
30
48
48
30
00
00
00
00
ENDCHAR
STARTCHAR 249
ENCODING 249
SWIDTH 540 0
DWIDTH 6 0
BBX 6 8 0 0
BITMAP
00
00
00
30
30
00
00
00
ENDCHAR
STARTCHAR 250
ENCODING 250
SWIDTH 540 0
DWIDTH 6 0
BBX 6 8 0 0
BITMAP
00
00
00
20
00
00
00
00
ENDCHAR
STARTCHAR 251
ENCODING 251
SWIDTH 540 0
DWIDTH 6 0
BBX 6 8 0 0
BITMAP
00
1c
10
10
50
50
20
00
ENDCHAR
STARTCHAR 252
ENCODING 252
SWIDTH 540 0
DWIDTH 6 0
BBX 6 8 0 0
BITMAP
50
28
28
28
00
00
00
00
ENDCHAR
STARTCHAR 253
ENCODING 253
SWIDTH 540 0
DWIDTH 6 0
BBX 6 8 0 0
BITMAP
60
10
20
70
00
00
00
00
ENDCHAR
STARTCHAR 254
ENCODING 254
SWIDTH 540 0
DWIDTH 6 0
BBX 6 8 0 0
BITMAP
00
00
78
78
78
78
00
00
ENDCHAR
STARTCHAR 255
ENCODING 255
SWIDTH 540 0
DWIDTH 6 0
BBX 6 8 0 0
BITMAP
00
00
00
00
00
00
00
00
ENDCHAR
ENDFONT
